# xmcd
#
# Track frame offsets: 
#        150
#        9784
#        20695
#        34020
#        47549
#        64687
#        81274
#        95829
#        110107
#        121804
#        132005
#        146236
#        156991
#        172198
#
# Disc length: 2469 seconds
#
# Revision: 0
# Processed by: cddbd v1.5.2PL0 Copyright (c) Steve Scherf et al.
# Submitted via: ExactAudioCopy v0.99pb5
#
DISCID=be09a30e
DTITLE=Greg Igor and The Box Kickers - I Was Wrong
DYEAR=2010
DGENRE=Blues
TTITLE0=Who You Lying To
TTITLE1=I Thought It Would Be Me
TTITLE2=I'm Yours
TTITLE3=Broken Heart
TTITLE4=Turkey Necks
TTITLE5=I Was Wrong
TTITLE6=Old Friend
TTITLE7=Stuck In Texas
TTITLE8=Swiss Krissly
TTITLE9=I Don't Want To Be The One
TTITLE10=Young Girl
TTITLE11=Voleur
TTITLE12=Jail
TTITLE13=Soul Survivior
EXTD=
EXTT0=
EXTT1=
EXTT2=
EXTT3=
EXTT4=
EXTT5=
EXTT6=
EXTT7=
EXTT8=
EXTT9=
EXTT10=
EXTT11=
EXTT12=
EXTT13=
PLAYORDER=
